<svg
  xmlns:dc="http://purl.org/dc/elements/1.1/"
  xmlns:cc="http://creativecommons.org/ns#"
  xmlns:rdf="http://www.w3.org/1999/02/22-rdf-syntax-ns#"
  xmlns:svg="http://www.w3.org/2000/svg"
  xmlns="http://www.w3.org/2000/svg"
  xmlns:sodipodi="http://sodipodi.sourceforge.net/DTD/sodipodi-0.dtd"
  xmlns:inkscape="http://www.inkscape.org/namespaces/inkscape"
  version="1.1"
  x="0px"
  y="0px"
  viewBox="0 0 100 125"
>
  <g transform="translate(0,-952.36218)">
    <path
      fill="black"
      style="text-indent:0;text-transform:none;direction:ltr;block-progression:tb;baseline-shift:baseline;color:#000000;enable-background:accumulate;"
      d="m 50,963.36206 c -14.26963,0 -26,11.1275 -26,27 0,5.6643 1.33423,9.6048 3.8125,13.96874 l 20.4375,36 a 2.0001999,2.0001999 0 0 0 3.5,0 l 20.4375,-36 C 74.66581,999.96676 76,996.02636 76,990.36206 c 0,-15.8725 -11.73037,-27 -26,-27 z m 0,4 c 12.24005,0 22,9.0491 22,23 0,5.0842 -0.98658,7.9593 -3.28125,12.00004 L 50,1035.2996 31.28125,1002.3621 C 28.98662,998.32146 28,995.44626 28,990.36206 c 0,-13.9509 9.75995,-23 22,-23 z m 0,8 c -7.7083,0 -14,6.2917 -14,14 0,7.7082 6.29168,14.00004 14,14.00004 7.70832,0 14,-6.29184 14,-14.00004 0,-7.7083 -6.2917,-14 -14,-14 z m 0,4 c 5.54654,0 10,4.4535 10,10 0,5.5464 -4.45348,10 -10,10 -5.54652,0 -10,-4.4536 -10,-10 0,-5.5465 4.45346,-10 10,-10 z"
      fill-opacity="1"
      stroke="none"
      marker="none"
      visibility="visible"
      display="inline"
      overflow="visible"
    />
  </g>
</svg>
